HIERARCHY
ROOT Hips
{
 OFFSET 0.000000 0.000000 0.000000
 CHANNELS 6 Xposition Yposition Zposition Yrotation Xrotation Zrotation
 JOINT Chest
 {
  OFFSET 0.000000 10.383400 0.001500
  CHANNELS 3 Yrotation Xrotation Zrotation
  JOINT Chest2
  {
   OFFSET 0.000000 10.418200 -0.003100
   CHANNELS 3 Yrotation Xrotation Zrotation
   JOINT Chest3
   {
    OFFSET 0.000000 10.375100 0.000000
    CHANNELS 3 Yrotation Xrotation Zrotation
    JOINT Chest4
    {
     OFFSET 0.000000 10.364600 0.000000
     CHANNELS 3 Yrotation Xrotation Zrotation
     JOINT Neck
     {
      OFFSET 0.000000 15.642200 0.000000
      CHANNELS 3 Yrotation Xrotation Zrotation
      JOINT Head
      {
       OFFSET 0.000000 9.697300 -0.006500
       CHANNELS 3 Yrotation Xrotation Zrotation
       End Site
       {
        OFFSET 0.000000 18.492200 -0.003400
       }
      }
     }
     JOINT RightCollar
     {
      OFFSET -3.166800 10.349300 0.000000
      CHANNELS 3 Yrotation Xrotation Zrotation
      JOINT RightShoulder
      {
       OFFSET -14.729700 0.000000 0.000000
       CHANNELS 3 Yrotation Xrotation Zrotation
       JOINT RightElbow
       {
        OFFSET 0.000000 -32.224300 0.000000
        CHANNELS 3 Yrotation Xrotation Zrotation
        JOINT RightWrist
        {
         OFFSET 0.000000 -26.084100 0.000000
         CHANNELS 3 Yrotation Xrotation Zrotation
         End Site
         {
          OFFSET 0.000000 -19.319400 0.000000
         }
        }
       }
      }
     }
     JOINT LeftCollar
     {
      OFFSET 3.166800 10.349300 0.000000
      CHANNELS 3 Yrotation Xrotation Zrotation
      JOINT LeftShoulder
      {
       OFFSET 14.729700 0.000000 0.000000
       CHANNELS 3 Yrotation Xrotation Zrotation
       JOINT LeftElbow
       {
        OFFSET 0.000000 -32.224300 0.000000
        CHANNELS 3 Yrotation Xrotation Zrotation
        JOINT LeftWrist
        {
         OFFSET 0.000000 -26.084100 0.000000
         CHANNELS 3 Yrotation Xrotation Zrotation
         End Site
         {
          OFFSET 0.000000 -19.319400 0.000000
         }
        }
       }
      }
     }
    }
   }
  }
 }
 JOINT RightHip
 {
  OFFSET -8.428900 -0.007500 -0.000800
  CHANNELS 3 Yrotation Xrotation Zrotation
  JOINT RightKnee
  {
   OFFSET 0.000000 -43.834600 0.000700
   CHANNELS 3 Yrotation Xrotation Zrotation
   JOINT RightAnkle
   {
    OFFSET 0.000000 -42.757000 0.001200
    CHANNELS 3 Yrotation Xrotation Zrotation
    JOINT RightToe
    {
     OFFSET 0.000000 -6.946900 15.649300
     CHANNELS 3 Yrotation Xrotation Zrotation
     End Site
     {
      OFFSET 0.000000 -1.580800 6.825800
     }
    }
   }
  }
 }
 JOINT LeftHip
 {
  OFFSET 8.428900 -0.007500 -0.000800
  CHANNELS 3 Yrotation Xrotation Zrotation
  JOINT LeftKnee
  {
   OFFSET 0.000000 -43.834600 0.000700
   CHANNELS 3 Yrotation Xrotation Zrotation
   JOINT LeftAnkle
   {
    OFFSET 0.000000 -42.757000 0.001200
    CHANNELS 3 Yrotation Xrotation Zrotation
    JOINT LeftToe
    {
     OFFSET 0.000000 -6.946900 15.649300
     CHANNELS 3 Yrotation Xrotation Zrotation
     End Site
     {
      OFFSET 0.000000 -1.580800 6.825800
     }
    }
   }
  }
 }
}
MOTION
Frames: 15
Frame Time: 0.008333
123.169101 127.164757 36.260034 -12.913701 -33.480927 -1.345416 -2.104245 23.600640 2.179724 -0.365989 3.523031 0.375270 -0.578920 5.672863 0.592481 -1.805431 19.736617 1.873028 0.910630 16.890621 -1.839018 2.329196 -4.396973 -3.709333 8.143541 -11.281638 -11.526584 22.251202 -45.416420 -14.449034 -134.340515 -48.101331 166.570781 9.158878 -23.560958 -42.119870 -8.641328 -14.286344 1.699339 -17.684424 -40.428129 13.481137 121.705985 -44.687405 -152.624776 -10.517904 -27.377724 46.613843 -2.542929 -43.298282 -0.040463 -98.474544 82.682100 -96.644713 4.026747 18.958934 8.769570 0.001836 0.001653 0.000815 -4.824181 -35.084368 -13.133050 -0.561525 81.002206 -1.374004 -15.892907 19.140275 -4.438456 0.000095 0.000489 0.000042
123.168912 127.165162 36.257639 -12.917856 -33.493129 -1.342406 -2.103163 23.607634 2.176669 -0.365910 3.523961 0.375079 -0.576186 5.674700 0.590813 -1.805294 19.740816 1.863664 0.916324 16.881468 -1.825394 2.356606 -4.478631 -3.698942 8.086161 -11.370286 -11.524538 22.196418 -45.390101 -14.414454 -134.356890 -48.080635 166.559990 9.147840 -23.395035 -42.042032 -8.637210 -14.292436 1.713217 -17.556739 -40.413246 13.481306 121.853809 -44.709162 -152.680632 -10.527043 -27.333465 46.403474 -2.549568 -43.293655 -0.034587 -98.496613 82.680547 -96.669371 4.015816 18.963862 8.767188 0.004506 -0.001549 0.002000 -4.816828 -35.075293 -13.132148 -0.613260 81.003367 -1.425859 -15.901225 19.148764 -4.440729 -0.000290 0.000325 -0.000129
123.168656 127.165772 36.255606 -12.916150 -33.506049 -1.343227 -2.101500 23.613059 2.174671 -0.365563 3.526101 0.374541 -0.578266 5.679481 0.593047 -1.802986 19.742574 1.860647 0.926988 16.850862 -1.819322 2.377487 -4.543791 -3.683164 8.052222 -11.410488 -11.522998 22.122953 -45.384633 -14.391282 -134.393333 -48.066824 166.586897 9.137568 -23.216566 -41.964211 -8.613511 -14.322457 1.728052 -17.421265 -40.380621 13.448878 121.990638 -44.715986 -152.741283 -10.524826 -27.276266 46.192190 -2.554527 -43.282672 -0.033401 -98.491641 82.674290 -96.665662 4.018785 18.964715 8.769922 0.004956 -0.000877 0.002200 -4.813952 -35.066598 -13.130939 -0.652558 81.007457 -1.466204 -15.903947 19.156197 -4.443591 -0.000374 0.000326 -0.000166
123.168682 127.166133 36.253347 -12.910908 -33.515340 -1.345228 -2.101878 23.607133 2.175212 -0.366025 3.528469 0.374454 -0.581912 5.691679 0.589421 -1.800766 19.742719 1.863786 0.937999 16.820122 -1.814730 2.398396 -4.603830 -3.666772 8.034508 -11.428150 -11.523413 22.033722 -45.384052 -14.372046 -134.445234 -48.056048 166.637946 9.124122 -23.028260 -41.886506 -8.553924 -14.379527 1.749019 -17.365641 -40.332954 13.380135 122.167225 -44.757127 -152.810107 -10.501474 -27.210934 45.972059 -2.563140 -43.275103 -0.034177 -98.487008 82.663051 -96.662771 4.028748 18.964827 8.774248 0.005954 0.000506 0.002643 -4.814443 -35.061480 -13.130225 -0.624029 81.011502 -1.441584 -15.907711 19.161602 -4.446715 0.000399 0.000122 0.000177
123.169240 127.165932 36.250455 -12.906809 -33.518065 -1.344699 -2.106678 23.602078 2.174683 -0.365725 3.531249 0.373517 -0.576810 5.689169 0.590417 -1.805431 19.747127 1.862681 0.958181 16.750740 -1.787955 2.409409 -4.608996 -3.666217 8.014240 -11.442520 -11.526002 21.934589 -45.380560 -14.353581 -134.501873 -48.044197 166.693819 9.105909 -22.833636 -41.798875 -8.528513 -14.402170 1.758521 -17.173926 -40.309183 13.319057 122.214335 -44.722925 -152.851577 -10.462581 -27.132172 45.734343 -2.587587 -43.275909 -0.032862 -98.495012 82.660403 -96.685777 4.042464 18.964804 8.783647 0.002502 0.000843 0.001111 -4.807485 -35.063933 -13.132726 -0.644106 81.016017 -1.461666 -15.910292 19.169206 -4.451946 0.002024 -0.000875 0.000899
123.169471 127.166450 36.248757 -12.902733 -33.527355 -1.344334 -2.112077 23.608639 2.172106 -0.366961 3.528352 0.374691 -0.590440 5.669676 0.600162 -1.805446 19.758950 1.853723 0.966981 16.746905 -1.788433 2.434724 -4.657011 -3.653420 7.957726 -11.487016 -11.538785 21.865190 -45.346863 -14.309433 -134.579180 -48.033222 166.755612 9.077842 -22.629456 -41.688050 -8.503940 -14.401614 1.751852 -16.971953 -40.298427 13.263240 122.239528 -44.680956 -152.878206 -10.417136 -27.034499 45.463498 -2.596203 -43.268904 -0.035891 -98.489976 82.658631 -96.688219 4.049679 18.967561 8.794547 0.001548 0.000865 0.000687 -4.807057 -35.058819 -13.137559 -0.640022 81.018743 -1.456772 -15.923566 19.175313 -4.460565 0.001950 -0.000702 0.000866
123.169607 127.168161 36.248988 -12.894707 -33.547629 -1.344008 -2.127917 23.616092 2.169148 -0.368830 3.527772 0.375147 -0.593519 5.673297 0.599653 -1.815236 19.752401 1.856476 0.979325 16.747544 -1.795163 2.447060 -4.670383 -3.651977 7.943581 -11.491816 -11.554193 21.779382 -45.326726 -14.304751 -134.690607 -48.025033 166.825501 9.037280 -22.409599 -41.548819 -8.471826 -14.396354 1.736557 -16.809091 -40.289049 13.214600 122.309935 -44.656761 -152.902144 -10.366268 -26.910707 45.150471 -2.608427 -43.248256 -0.045935 -98.476907 82.670489 -96.684881 4.055239 18.972789 8.807059 -0.002914 -0.000612 -0.001293 -4.807920 -35.041723 -13.145142 -0.655493 81.019504 -1.470064 -15.958158 19.183814 -4.463625 0.001201 -0.000605 0.000533
123.169971 127.168626 36.247471 -12.891484 -33.555053 -1.341529 -2.141011 23.613061 2.164870 -0.370274 3.528087 0.375261 -0.590253 5.679703 0.598094 -1.828163 19.746946 1.858179 0.996248 16.703709 -1.765466 2.459191 -4.644026 -3.678290 7.938462 -11.494305 -11.563651 21.696456 -45.303014 -14.320511 -134.843311 -48.025726 166.901873 8.986781 -22.173436 -41.378679 -8.437822 -14.402354 1.733693 -16.645100 -40.270971 13.157982 122.432351 -44.637300 -152.936225 -10.311485 -26.756999 44.803860 -2.607713 -43.243828 -0.057193 -98.498164 82.678257 -96.707787 4.056668 18.975184 8.813144 -0.005351 -0.000611 -0.002375 -4.805737 -35.038486 -13.148444 -0.610825 81.018759 -1.425332 -16.016508 19.196326 -4.462204 -0.000042 0.000390 -0.000019
123.170015 127.168630 36.245260 -12.889517 -33.557441 -1.340505 -2.149401 23.608917 2.167064 -0.372157 3.528402 0.375646 -0.588998 5.683019 0.594485 -1.841538 19.744080 1.863957 1.006960 16.679830 -1.760262 2.503435 -4.743014 -3.655377 7.914190 -11.508875 -11.577877 21.637202 -45.265580 -14.337324 -135.029334 -48.035841 166.978039 8.933757 -21.922667 -41.168156 -8.391116 -14.411309 1.731966 -16.484604 -40.246147 13.090089 122.629232 -44.624234 -153.000258 -10.258226 -26.573766 44.441889 -2.601545 -43.245765 -0.064719 -98.533061 82.683901 -96.739214 4.054367 18.976631 8.816957 -0.005307 0.000245 -0.002356 -4.798911 -35.039674 -13.153704 -0.588582 81.020353 -1.400855 -16.047367 19.205420 -4.459894 -0.000801 0.000463 -0.000356
123.169436 127.169053 36.243648 -12.889558 -33.563911 -1.340610 -2.160168 23.611003 2.169057 -0.374075 3.529586 0.376234 -0.599575 5.683215 0.599140 -1.845018 19.747480 1.860667 1.019789 16.644664 -1.761769 2.538639 -4.827742 -3.648283 7.839286 -11.548662 -11.586759 21.629014 -45.208859 -14.347904 -135.223016 -48.048470 167.045198 8.883067 -21.662812 -40.908380 -8.357863 -14.417245 1.716031 -16.312463 -40.214761 13.038585 122.896068 -44.615572 -153.102275 -10.209678 -26.368327 44.082309 -2.593090 -43.245056 -0.068318 -98.561211 82.692500 -96.763800 4.055205 18.986771 8.826622 -0.002815 -0.000438 -0.001250 -4.779094 -35.033480 -13.162482 -0.607560 81.020536 -1.407630 -16.073190 19.213807 -4.457984 -0.001337 -0.000107 -0.000593
123.170198 127.169140 36.241983 -12.889194 -33.567460 -1.333538 -2.175391 23.610623 2.163862 -0.379453 3.531396 0.379345 -0.592997 5.683849 0.591017 -1.875547 19.751774 1.863326 1.053641 16.603367 -1.769019 2.568449 -4.906869 -3.645376 7.819464 -11.567094 -11.604383 21.574443 -45.154970 -14.360073 -135.393075 -48.056919 167.091378 8.829791 -21.397572 -40.594809 -8.264360 -14.431725 1.690250 -16.162095 -40.171030 12.971571 123.213289 -44.609131 -153.236270 -10.166121 -26.159265 43.737555 -2.579503 -43.248713 -0.077365 -98.601179 82.695559 -96.800414 4.045368 18.992222 8.827609 -0.000236 -0.002284 -0.000105 -4.765033 -35.030184 -13.175243 -0.615981 81.018688 -1.414692 -16.077555 19.218438 -4.458576 -0.001387 0.000466 -0.000616
123.170695 127.169663 36.241056 -12.877767 -33.575673 -1.332996 -2.189888 23.617064 2.161592 -0.378803 3.532499 0.375753 -0.598696 5.687948 0.591734 -1.875400 19.751036 1.860035 1.061567 16.579964 -1.766007 2.603038 -5.019594 -3.638198 7.758654 -11.585130 -11.608802 21.491460 -45.099844 -14.351221 -135.511703 -48.056424 167.102334 8.769957 -21.124017 -40.222650 -8.217776 -14.438408 1.677972 -15.980050 -40.125061 12.898845 123.552949 -44.601398 -153.392711 -10.129496 -25.956993 43.411652 -2.579779 -43.244088 -0.083432 -98.592725 82.688110 -96.792998 4.054054 19.005024 8.830246 0.001556 -0.003390 0.000691 -4.758223 -35.020571 -13.194159 -0.582040 81.020010 -1.381454 -16.033719 19.213495 -4.463459 -0.000262 -0.000025 -0.000116
123.170273 127.170018 36.239812 -12.873363 -33.583057 -1.333945 -2.191458 23.618425 2.161896 -0.381514 3.537340 0.375640 -0.599413 5.691450 0.593827 -1.879065 19.751485 1.857613 1.069539 16.555111 -1.762694 2.639892 -5.135791 -3.630079 7.694640 -11.599778 -11.617225 21.352715 -45.042005 -14.310113 -135.565816 -48.048528 167.078730 8.700284 -20.851502 -39.792172 -8.202486 -14.441898 1.673332 -15.730548 -40.080079 12.805262 123.877550 -44.588070 -153.557856 -10.098480 -25.764157 43.103691 -2.591327 -43.237800 -0.074145 -98.586121 82.680579 -96.793013 4.061462 19.008683 8.826748 0.003232 -0.001232 0.001435 -4.746488 -35.011777 -13.206464 -0.556967 81.022080 -1.352590 -16.006644 19.210482 -4.464678 0.000340 -0.000676 0.000151
123.169874 127.169884 36.238060 -12.871460 -33.586457 -1.334195 -2.185874 23.612666 2.163545 -0.389183 3.544111 0.376440 -0.594981 5.686201 0.592582 -1.886174 19.759729 1.857165 1.086631 16.505339 -1.754245 2.671512 -5.219881 -3.618078 7.630365 -11.608499 -11.627146 21.147285 -44.977755 -14.236233 -135.562717 -48.037919 167.031551 8.611405 -20.600292 -39.304407 -8.147614 -14.446048 1.658819 -15.470919 -40.035644 12.691314 124.152086 -44.567304 -153.715359 -10.064981 -25.590642 42.807765 -2.594095 -43.235352 -0.072966 -98.588098 82.678605 -96.795215 4.065018 19.012127 8.829315 0.001890 0.000622 0.000839 -4.737689 -35.007509 -13.214898 -0.544307 81.023883 -1.337752 -15.980804 19.206042 -4.467779 0.001640 -0.000968 0.000728
123.169490 127.170551 36.237874 -12.866412 -33.598550 -1.334469 -2.179859 23.615288 2.163513 -0.389640 3.542650 0.376032 -0.599504 5.691535 0.593327 -1.878322 19.755101 1.853165 1.100193 16.461471 -1.740467 2.693962 -5.289990 -3.591967 7.563945 -11.604315 -11.624372 20.864528 -44.899354 -14.144369 -135.520024 -48.027793 166.966531 8.499601 -20.380179 -38.767718 -8.046682 -14.447929 1.627849 -15.228125 -39.986523 12.568762 124.358447 -44.540171 -153.851299 -10.022801 -25.441956 42.517514 -2.603019 -43.224849 -0.071855 -98.587435 82.678220 -96.797050 4.066058 19.020939 8.829278 0.002627 0.000565 0.001166 -4.735545 -34.995436 -13.219395 -0.511832 81.024529 -1.307180 -15.993253 19.206534 -4.467240 0.000992 -0.000143 0.000440
